<svg width="32" height="34" viewBox="0 0 32 34" fill="none" xmlns="http://www.w3.org/2000/svg">
<path d="M22.2681 15.1724L16.9466 20.8391C16.8229 20.9719 16.6758 21.0773 16.5137 21.1492C16.3516 21.2211 16.1777 21.2582 16.0021 21.2582C15.8264 21.2582 15.6525 21.2211 15.4904 21.1492C15.3283 21.0773 15.1812 20.9719 15.0575 20.8391L9.73598 15.1724C9.61194 15.0403 9.51354 14.8835 9.44641 14.711C9.37928 14.5384 9.34473 14.3534 9.34473 14.1666C9.34473 13.9798 9.37928 13.7948 9.44641 13.6222C9.51354 13.4497 9.61194 13.2929 9.73598 13.1608C9.86002 13.0287 10.0073 12.9239 10.1694 12.8524C10.3314 12.7809 10.5051 12.7441 10.6805 12.7441C10.856 12.7441 11.0297 12.7809 11.1917 12.8524C11.3538 12.9239 11.5011 13.0287 11.6251 13.1608L16.0021 17.8358L20.379 13.1608C20.6295 12.894 20.9693 12.7441 21.3236 12.7441C21.6778 12.7441 22.0176 12.894 22.2681 13.1608C22.5186 13.4275 22.6594 13.7893 22.6594 14.1666C22.6594 14.5439 22.5186 14.9057 22.2681 15.1724Z" fill="#EEEEEE"/>
</svg>
