<svg width="33" height="34" viewBox="0 0 33 34" fill="none" xmlns="http://www.w3.org/2000/svg">
<path d="M22.7168 15.1724L17.4211 20.8391C17.298 20.9719 17.1516 21.0773 16.9902 21.1492C16.8289 21.2211 16.6558 21.2582 16.4811 21.2582C16.3063 21.2582 16.1333 21.2211 15.9719 21.1492C15.8106 21.0773 15.6642 20.9719 15.5411 20.8391L10.2453 15.1724C10.1219 15.0403 10.024 14.8835 9.95715 14.711C9.89034 14.5384 9.85596 14.3534 9.85596 14.1666C9.85596 13.9798 9.89034 13.7948 9.95715 13.6222C10.024 13.4497 10.1219 13.2929 10.2453 13.1608C10.3688 13.0287 10.5153 12.9239 10.6766 12.8524C10.8379 12.7809 11.0107 12.7441 11.1853 12.7441C11.3599 12.7441 11.5328 12.7809 11.694 12.8524C11.8553 12.9239 12.0019 13.0287 12.1253 13.1608L16.4811 17.8358L20.8368 13.1608C21.0861 12.894 21.4243 12.7441 21.7768 12.7441C22.1294 12.7441 22.4675 12.894 22.7168 13.1608C22.9661 13.4275 23.1062 13.7893 23.1062 14.1666C23.1062 14.5439 22.9661 14.9057 22.7168 15.1724Z" fill="#EEEEEE"/>
</svg>
