<svg width="45" height="45" viewBox="0 0 45 45" fill="none" xmlns="http://www.w3.org/2000/svg">
<path d="M37.0311 28.2188C36.3374 26.9062 35.4749 25.6313 34.8186 24.3562C34.1779 23.2122 33.812 21.9348 33.7499 20.625V17.2688C33.7533 14.4303 32.7426 11.684 30.8999 9.525C29.2331 7.54712 26.923 6.21946 24.3749 5.775V5.625C24.3749 5.12772 24.1773 4.65081 23.8257 4.29917C23.4741 3.94754 22.9972 3.75 22.4999 3.75C22.0026 3.75 21.5257 3.94754 21.1741 4.29917C20.8224 4.65081 20.6249 5.12772 20.6249 5.625V5.79375C18.0054 6.23652 15.6271 7.59203 13.9112 9.6202C12.1954 11.6484 11.2526 14.2184 11.2499 16.875V20.625C11.1906 21.9412 10.8247 23.2253 10.1811 24.375C9.52489 25.65 8.66239 26.925 7.96864 28.2375C7.58757 28.9359 7.43849 29.7374 7.54298 30.5261C7.64747 31.3149 8.0001 32.0499 8.54989 32.625C8.90161 32.9838 9.32186 33.2683 9.78568 33.4616C10.2495 33.6549 10.7474 33.7529 11.2499 33.75H16.8749C16.8749 35.2418 17.4675 36.6726 18.5224 37.7275C19.5773 38.7824 21.0081 39.375 22.4999 39.375C23.9917 39.375 25.4225 38.7824 26.4774 37.7275C27.5323 36.6726 28.1249 35.2418 28.1249 33.75H33.7499C34.2537 33.7505 34.7524 33.6495 35.2163 33.453C35.6802 33.2565 36.0998 32.9685 36.4499 32.6062C36.9997 32.0312 37.3523 31.2961 37.4568 30.5074C37.5613 29.7187 37.4122 28.9172 37.0311 28.2188ZM22.4999 35.625C22.0026 35.625 21.5257 35.4275 21.1741 35.0758C20.8224 34.7242 20.6249 34.2473 20.6249 33.75H24.3749C24.3749 34.2473 24.1773 34.7242 23.8257 35.0758C23.4741 35.4275 22.9972 35.625 22.4999 35.625ZM11.2499 30C11.8124 28.95 12.7124 27.6187 13.4999 26.0625C14.4296 24.3969 14.9441 22.5317 14.9999 20.625V16.875C14.9999 14.8859 15.7901 12.9782 17.1966 11.5717C18.6031 10.1652 20.5108 9.375 22.4999 9.375H23.2499C24.1927 9.46448 25.1086 9.73909 25.9452 10.1831C26.7817 10.6271 27.5224 11.2318 28.1249 11.9625C29.3553 13.4552 30.0194 15.3344 29.9999 17.2688V20.625C30.0529 22.5238 30.5609 24.3821 31.4811 26.0438C32.2686 27.6 33.1686 28.9312 33.7311 29.9812H11.2499V30Z" fill="#0C2180"/>
</svg>
