<svg width="45" height="45" viewBox="0 0 45 45" fill="none" xmlns="http://www.w3.org/2000/svg">
<path d="M40.7063 38.0438L32.4563 29.8125C34.5157 27.1935 35.6321 23.9567 35.625 20.625C35.625 17.6583 34.7453 14.7582 33.097 12.2915C31.4488 9.82472 29.1061 7.90213 26.3653 6.76681C23.6244 5.6315 20.6084 5.33445 17.6987 5.91323C14.7889 6.49201 12.1162 7.92062 10.0184 10.0184C7.92062 12.1162 6.49201 14.7889 5.91323 17.6987C5.33445 20.6084 5.6315 23.6244 6.76681 26.3653C7.90213 29.1061 9.82472 31.4488 12.2915 33.097C14.7582 34.7453 17.6583 35.625 20.625 35.625C23.9567 35.6321 27.1935 34.5157 29.8125 32.4563L38.0438 40.7063C38.3968 41.0593 38.8757 41.2577 39.375 41.2577C39.8743 41.2577 40.3532 41.0593 40.7063 40.7063C41.0593 40.3532 41.2577 39.8743 41.2577 39.375C41.2577 38.8757 41.0593 38.3968 40.7063 38.0438ZM12.675 28.6688C10.8128 26.8478 9.6402 24.4371 9.35713 21.848C9.07405 19.259 9.69809 16.6519 11.1228 14.4715C12.5475 12.2912 14.6845 10.6728 17.1693 9.89229C19.6542 9.11183 22.3328 9.21772 24.7483 10.1919C27.1638 11.166 29.1664 12.9481 30.4146 15.2341C31.6627 17.5201 32.079 20.1683 31.5924 22.727C31.1059 25.2857 29.7466 27.5962 27.7465 29.2645C25.7464 30.9328 23.2295 31.8554 20.625 31.875C17.6423 31.8724 14.7828 30.6854 12.675 28.575V28.6688Z" fill="#0C2180"/>
</svg>
