<svg width="45" height="45" viewBox="0 0 45 45" fill="none" xmlns="http://www.w3.org/2000/svg">
<path d="M40.5092 38.0438L32.2991 29.8125C34.3486 27.1935 35.4595 23.9567 35.4525 20.625C35.4525 17.6583 34.577 14.7582 32.9368 12.2915C31.2965 9.82472 28.9652 7.90213 26.2376 6.76681C23.5099 5.6315 20.5085 5.33445 17.6129 5.91323C14.7173 6.49201 12.0574 7.92062 9.9698 10.0184C7.88217 12.1162 6.46047 14.7889 5.88449 17.6987C5.30851 20.6084 5.60412 23.6244 6.73395 26.3653C7.86377 29.1061 9.77705 31.4488 12.2319 33.097C14.6867 34.7453 17.5727 35.625 20.5251 35.625C23.8407 35.6321 27.0618 34.5157 29.6681 32.4563L37.8596 40.7063C38.2109 41.0593 38.6875 41.2577 39.1844 41.2577C39.6813 41.2577 40.1578 41.0593 40.5092 40.7063C40.8605 40.3532 41.0579 39.8743 41.0579 39.375C41.0579 38.8757 40.8605 38.3968 40.5092 38.0438ZM12.6136 28.6688C10.7604 26.8478 9.59343 24.4371 9.31172 21.848C9.03002 19.259 9.65103 16.6519 11.0688 14.4715C12.4866 12.2912 14.6133 10.6728 17.0861 9.89229C19.559 9.11183 22.2246 9.21772 24.6284 10.1919C27.0322 11.166 29.0252 12.9481 30.2673 15.2341C31.5094 17.5201 31.9236 20.1683 31.4394 22.727C30.9552 25.2857 29.6025 27.5962 27.6121 29.2645C25.6217 30.9328 23.1169 31.8554 20.5251 31.875C17.5568 31.8724 14.7111 30.6854 12.6136 28.575V28.6688Z" fill="#EEEEEE"/>
</svg>
